# xmcd
#
# Track frame offsets: 
#        150
#        11683
#        24312
#        34808
#        46834
#        60980
#        75918
#        91212
#        105873
#        120931
#        132728
#        148104
#        161391
#        176207
#        188789
#        203307
#        219232
#        231088
#        242218
#        256729
#        269963
#        283812
#        295592
#        310185
#        322328
#        335942
#        351470
#        363489
#        374628
#
# Disc length: 5170 seconds
#
# Revision: 0
# Processed by: cddbd v1.5.2PL0 Copyright (c) Steve Scherf et al.
# Submitted via: ExactAudioCopy v0.99pb4
#
DISCID=b914301d
DTITLE=The Dixon Brothers - A Blessing To People - Disc 1
DYEAR=2012
DGENRE=Country
TTITLE0=Weave Room Blues
TTITLE1=Two Little Rosebuds
TTITLE2=Sales Tax On The Women
TTITLE3=Intoxicated Rat
TTITLE4=Not Turning Back
TTITLE5=White Flower For You
TTITLE6=Answer To Maple On The Hill - Part 1
TTITLE7=Answer To Maple On The Hill - Part 3
TTITLE8=Greenback Dollar - Part 2
TTITLE9=Spinning Room Blues
TTITLE10=My Girl In Sunny Tennessee
TTITLE11=A Wonderful Day
TTITLE12=Are You Sure?
TTITLE13=That Old Vacant Chair
TTITLE14=I'm Just Here To Get My Baby Out Of Jail - Part 2
TTITLE15=Never To Be Sweethearts Again
TTITLE16=Bonnie Blue Eyes - Part 2 (Hush Little Bonnie)
TTITLE17=Ocean Of Life
TTITLE18=Rambling Gambler
TTITLE19=Dark Eyes
TTITLE20=Easter Day
TTITLE21=The Old True Love
TTITLE22=Answer To Maple On The Hill - Part 4
TTITLE23=Beautiful Stars
TTITLE24=I Will Meet My Precious Mother
TTITLE25=Weaver's Life
TTITLE26=Darling Do You Miss Me
TTITLE27=Little Bessie
TTITLE28=How Can A Broke Man Be Happy
EXTD=
EXTT0=
EXTT1=
EXTT2=
EXTT3=
EXTT4=
EXTT5=
EXTT6=
EXTT7=
EXTT8=
EXTT9=
EXTT10=
EXTT11=
EXTT12=
EXTT13=
EXTT14=
EXTT15=
EXTT16=
EXTT17=
EXTT18=
EXTT19=
EXTT20=
EXTT21=
EXTT22=
EXTT23=
EXTT24=
EXTT25=
EXTT26=
EXTT27=
EXTT28=
PLAYORDER=
